<svg xmlns="http://www.w3.org/2000/svg" width="1200" height="630" viewBox="0 0 1200 630">
  <defs>
    <radialGradient id="glow" cx="72%" cy="12%" r="75%">
      <stop offset="0" stop-color="#45b8a6" stop-opacity=".16"/>
      <stop offset="1" stop-color="#0b1113" stop-opacity="0"/>
    </radialGradient>
    <linearGradient id="surface" x1="0" y1="0" x2="1" y2="1">
      <stop offset="0" stop-color="#182429"/>
      <stop offset="1" stop-color="#10181b"/>
    </linearGradient>
    <filter id="shadow" x="-20%" y="-20%" width="140%" height="160%">
      <feDropShadow dx="0" dy="20" stdDeviation="24" flood-color="#000" flood-opacity=".35"/>
    </filter>
  </defs>
  <rect width="1200" height="630" fill="#0b1113"/>
  <rect width="1200" height="630" fill="url(#glow)"/>

  <g transform="translate(70 58)">
    <rect width="46" height="46" rx="13" fill="#45b8a6"/>
    <rect x="12" y="15" width="21" height="19" rx="4" fill="none" stroke="#06110e" stroke-width="3"/>
    <path d="M19 15v-2a4 4 0 0 1 4-4h11a4 4 0 0 1 4 4v10a4 4 0 0 1-4 4" fill="none" stroke="#06110e" stroke-width="3" stroke-linecap="round"/>
    <text x="61" y="33" fill="#f3f7f6" font-family="Segoe UI, Arial, sans-serif" font-size="27" font-weight="700">ClipDock</text>
  </g>

  <g font-family="Segoe UI, Arial, sans-serif">
    <text x="70" y="197" fill="#66c8b9" font-size="17" font-weight="700" letter-spacing="2.2">WINDOWS SCREENSHOT WORKSPACE</text>
    <text x="70" y="270" fill="#f3f7f6" font-size="58" font-weight="750">Capture once.</text>
    <text x="70" y="336" fill="#a7dad2" font-size="58" font-weight="750">Find any screenshot</text>
    <text x="70" y="402" fill="#a7dad2" font-size="58" font-weight="750">in seconds.</text>
    <text x="72" y="456" fill="#a2b2b2" font-size="22">Private, searchable, local-first.</text>
    <g transform="translate(70 499)">
      <rect width="198" height="57" rx="13" fill="#45b8a6"/>
      <text x="99" y="36" text-anchor="middle" fill="#06110e" font-size="19" font-weight="750">Get ClipDock free</text>
    </g>
    <text x="70" y="591" fill="#778b8c" font-size="16">Windows 10 &amp; 11  ·  Local OCR  ·  Microsoft Store</text>
  </g>

  <g transform="translate(610 120)" filter="url(#shadow)">
    <rect width="520" height="374" rx="21" fill="#080d0f" stroke="#3a5158" stroke-width="2"/>
    <rect width="520" height="48" rx="21" fill="#131d21"/>
    <rect y="30" width="520" height="18" fill="#131d21"/>
    <rect x="15" y="15" width="17" height="17" rx="5" fill="#45b8a6"/>
    <text x="41" y="29" fill="#f3f7f6" font-family="Segoe UI, Arial" font-size="12" font-weight="700">ClipDock</text>
    <rect x="306" y="11" width="132" height="27" rx="10" fill="#182429" stroke="#293a40"/>
    <text x="321" y="29" fill="#778b8c" font-family="Segoe UI, Arial" font-size="9">Search screenshots…</text>
    <rect x="447" y="10" width="59" height="29" rx="10" fill="#45b8a6"/>
    <text x="476" y="29" text-anchor="middle" fill="#06110e" font-family="Segoe UI, Arial" font-size="10" font-weight="700">Capture</text>

    <rect y="48" width="104" height="326" fill="#10181b"/>
    <rect x="10" y="68" width="84" height="30" rx="7" fill="#153b36"/>
    <text x="28" y="87" fill="#d8f2ed" font-family="Segoe UI, Arial" font-size="10">Inbox</text>
    <text x="28" y="121" fill="#91a5a6" font-family="Segoe UI, Arial" font-size="10">Recent</text>
    <text x="28" y="153" fill="#91a5a6" font-family="Segoe UI, Arial" font-size="10">Pinned</text>
    <text x="20" y="190" fill="#667b7d" font-family="Segoe UI, Arial" font-size="8" font-weight="700">WORKSPACES</text>
    <text x="28" y="220" fill="#91a5a6" font-family="Segoe UI, Arial" font-size="10">Launch</text>
    <text x="28" y="251" fill="#91a5a6" font-family="Segoe UI, Arial" font-size="10">Research</text>

    <text x="122" y="75" fill="#f3f7f6" font-family="Segoe UI, Arial" font-size="11" font-weight="700">Launch workspace</text>
    <text x="358" y="75" fill="#778b8c" font-family="Segoe UI, Arial" font-size="9">24 items</text>
    <g transform="translate(120 92)">
      <g><rect width="91" height="102" rx="9" fill="#131d21" stroke="#293a40"/><rect width="91" height="68" rx="9" fill="#dce6e4"/><rect x="10" y="10" width="38" height="38" rx="5" fill="#213236"/><rect x="54" y="20" width="27" height="28" rx="5" fill="#76b8ae"/><text x="8" y="85" fill="#f3f7f6" font-family="Segoe UI, Arial" font-size="8" font-weight="700">Brand direction</text></g>
      <g transform="translate(101)"><rect width="91" height="102" rx="9" fill="#131d21" stroke="#293a40"/><rect width="91" height="68" rx="9" fill="#e7dfce"/><ellipse cx="46" cy="29" rx="27" ry="19" fill="#d6b56c"/><text x="8" y="85" fill="#f3f7f6" font-family="Segoe UI, Arial" font-size="8" font-weight="700">Campaign notes</text></g>
      <g transform="translate(202)"><rect width="91" height="102" rx="9" fill="#131d21" stroke="#45b8a6" stroke-width="2"/><rect width="91" height="68" rx="9" fill="#d8e5ef"/><rect x="14" y="15" width="23" height="38" rx="5" fill="#527b9a"/><rect x="57" y="9" width="21" height="43" rx="5" fill="#8fb0c7"/><text x="8" y="85" fill="#f3f7f6" font-family="Segoe UI, Arial" font-size="8" font-weight="700">Launch checklist</text></g>
      <g transform="translate(0 113)"><rect width="91" height="102" rx="9" fill="#131d21" stroke="#293a40"/><rect width="91" height="68" rx="9" fill="#e7e8e4"/><rect x="10" y="13" width="69" height="8" rx="4" fill="#293c40"/><rect x="10" y="31" width="69" height="8" rx="4" fill="#8ca09f"/><rect x="10" y="49" width="52" height="8" rx="4" fill="#bdc8c6"/><text x="8" y="85" fill="#f3f7f6" font-family="Segoe UI, Arial" font-size="8" font-weight="700">Settings reference</text></g>
      <g transform="translate(101 113)"><rect width="91" height="102" rx="9" fill="#131d21" stroke="#293a40"/><rect width="91" height="68" rx="9" fill="#ede5db"/><rect x="12" y="13" width="36" height="40" rx="5" fill="#354a4f" transform="rotate(-5 30 33)"/><rect x="49" y="20" width="32" height="38" rx="5" fill="#ca936f"/><text x="8" y="85" fill="#f3f7f6" font-family="Segoe UI, Arial" font-size="8" font-weight="700">Client feedback</text></g>
      <g transform="translate(202 113)"><rect width="91" height="102" rx="9" fill="#131d21" stroke="#293a40"/><rect width="91" height="68" rx="9" fill="#ddebe4"/><rect x="18" y="14" width="56" height="37" rx="5" fill="none" stroke="#4c6d68" stroke-width="4"/><rect x="29" y="56" width="35" height="5" rx="2" fill="#45b8a6"/><text x="8" y="85" fill="#f3f7f6" font-family="Segoe UI, Arial" font-size="8" font-weight="700">Export layout</text></g>
    </g>
    <rect x="423" y="48" width="97" height="326" fill="#10181b"/>
    <text x="437" y="72" fill="#778b8c" font-family="Segoe UI, Arial" font-size="8" font-weight="700">DETAILS</text>
    <rect x="436" y="88" width="71" height="70" rx="7" fill="#d8e5ef"/>
    <rect x="445" y="106" width="22" height="34" rx="3" fill="#527b9a"/><rect x="480" y="99" width="18" height="39" rx="3" fill="#8fb0c7"/>
    <text x="436" y="180" fill="#f3f7f6" font-family="Segoe UI, Arial" font-size="9" font-weight="700">Launch checklist</text>
    <text x="436" y="197" fill="#778b8c" font-family="Segoe UI, Arial" font-size="7">OCR ready</text>
    <rect x="436" y="221" width="71" height="57" rx="6" fill="#182429"/>
    <text x="443" y="238" fill="#a2b2b2" font-family="Segoe UI, Arial" font-size="7">Confirm listing</text><text x="443" y="251" fill="#a2b2b2" font-family="Segoe UI, Arial" font-size="7">Review screenshots</text><text x="443" y="264" fill="#a2b2b2" font-family="Segoe UI, Arial" font-size="7">Prepare notes</text>
  </g>
</svg>
